<?xml version="1.0" encoding="utf-8"?>
<!-- Generator: Adobe Illustrator 16.0.0, SVG Export Plug-In . SVG Version: 6.00 Build 0)  -->
<!DOCTYPE svg PUBLIC "-//W3C//DTD SVG 1.1//EN" "http://www.w3.org/Graphics/SVG/1.1/DTD/svg11.dtd">
<svg version="1.1" id="Layer_1" xmlns="http://www.w3.org/2000/svg" xmlns:xlink="http://www.w3.org/1999/xlink" x="0px" y="0px"
	 width="55px" height="53px" viewBox="0 0 55 53" enable-background="new 0 0 55 53" xml:space="preserve">
<g>
	<defs>
		<rect id="SVGID_1_" x="1.358" y="6.587" width="52.642" height="46.413"/>
	</defs>
	<clipPath id="SVGID_2_">
		<use xlink:href="#SVGID_1_"  overflow="visible"/>
	</clipPath>
	
		<path clip-path="url(#SVGID_2_)" fill="none" stroke="#0050FF" stroke-width="2.875" stroke-linecap="round" stroke-linejoin="round" stroke-miterlimit="10" d="
		M52.563,16.793h-7.047c-1.157,0-2.104-0.947-2.104-2.104V8.024"/>
	<path clip-path="url(#SVGID_2_)" fill="#0050FF" d="M27.664,53c-0.242,0-1.063-0.077-1.402-1.076
		c-0.611-1.805-2.573-2.799-5.527-2.799H4.816c-1.907,0-3.458-1.552-3.458-3.459V8.025c0-0.794,0.644-1.438,1.438-1.438h17.939
		c6.629,0,8.388,4.685,8.391,7.161c0,0.093-0.005,0.181-0.016,0.264v37.385C29.11,52.982,27.68,53,27.664,53 M4.233,9.462v36.204
		c0,0.316,0.267,0.584,0.583,0.584h15.919c2.494,0,4.256,0.575,5.499,1.35l0.001-33.853c0-0.049,0.002-0.097,0.007-0.144
		c-0.037-0.438-0.228-1.704-1.199-2.697c-0.938-0.958-2.388-1.444-4.308-1.444H4.233z"/>
	<path clip-path="url(#SVGID_2_)" fill="#0050FF" d="M27.721,53c-0.016,0-1.446-0.018-1.446-1.604V14.014
		c-0.01-0.083-0.016-0.169-0.016-0.261c0-0.354,0.063-2.21,1.314-3.997c1.013-1.446,3.063-3.169,7.077-3.169h8.767
		c0.37,0,0.728,0.143,0.994,0.399l9.147,8.764C53.84,16.021,54,16.396,54,16.788v28.878c0,1.907-1.552,3.459-3.459,3.459H34.649
		c-2.954,0-4.917,0.994-5.527,2.799C28.784,52.923,27.964,53,27.721,53 M29.149,13.747v33.854c1.244-0.777,3.007-1.352,5.5-1.352
		h15.892c0.316,0,0.584-0.268,0.584-0.584V17.401l-8.286-7.939h-8.189c-1.92,0-3.37,0.486-4.308,1.444
		c-0.972,0.992-1.162,2.259-1.199,2.696c0.005,0.046,0.007,0.091,0.007,0.138v0.001v0.001v0.002v0.001V13.747z"/>
	<path clip-path="url(#SVGID_2_)" fill="#0050FF" d="M43.769,30.396h-6.816c-0.794,0-1.438-0.645-1.438-1.437
		c0-0.795,0.644-1.438,1.438-1.438h6.816c0.794,0,1.437,0.644,1.437,1.438C45.205,29.751,44.563,30.396,43.769,30.396"/>
	<path clip-path="url(#SVGID_2_)" fill="#0050FF" d="M40.363,33.814c-0.795,0-1.438-0.644-1.438-1.437v-6.834
		c0-0.793,0.643-1.437,1.438-1.437c0.794,0,1.437,0.644,1.437,1.437v6.834C41.8,33.171,41.157,33.814,40.363,33.814"/>
	<path clip-path="url(#SVGID_2_)" fill="#0050FF" d="M19.175,19.815h-7.866c-0.794,0-1.437-0.644-1.437-1.437
		c0-0.794,0.643-1.438,1.437-1.438h7.866c0.794,0,1.437,0.644,1.437,1.438C20.612,19.171,19.969,19.815,19.175,19.815"/>
	<path clip-path="url(#SVGID_2_)" fill="#0050FF" d="M19.175,28.771h-7.866c-0.794,0-1.437-0.645-1.437-1.438
		c0-0.793,0.643-1.438,1.437-1.438h7.866c0.794,0,1.437,0.644,1.437,1.438C20.612,28.127,19.969,28.771,19.175,28.771"/>
	<path clip-path="url(#SVGID_2_)" fill="#0050FF" d="M19.175,37.728h-7.866c-0.794,0-1.437-0.644-1.437-1.438
		s0.643-1.438,1.437-1.438h7.866c0.794,0,1.437,0.644,1.437,1.438S19.969,37.728,19.175,37.728"/>
</g>
</svg>
