<?xml version="1.0" encoding="utf-8"?>
<!-- Generator: Adobe Illustrator 16.0.0, SVG Export Plug-In . SVG Version: 6.00 Build 0)  -->
<!DOCTYPE svg PUBLIC "-//W3C//DTD SVG 1.1//EN" "http://www.w3.org/Graphics/SVG/1.1/DTD/svg11.dtd">
<svg version="1.1" id="Layer_1" xmlns="http://www.w3.org/2000/svg" xmlns:xlink="http://www.w3.org/1999/xlink" x="0px" y="0px"
	 width="52.642px" height="46.413px" viewBox="0 0 52.642 46.413" enable-background="new 0 0 52.642 46.413" xml:space="preserve">
<g>
	<defs>
		<rect id="SVGID_1_" width="52.642" height="46.413"/>
	</defs>
	<clipPath id="SVGID_2_">
		<use xlink:href="#SVGID_1_"  overflow="visible"/>
	</clipPath>
	
		<path clip-path="url(#SVGID_2_)" fill="none" stroke="#0050FF" stroke-width="2.875" stroke-linecap="round" stroke-linejoin="round" stroke-miterlimit="10" d="
		M51.204,10.207h-7.047c-1.157,0-2.104-0.947-2.104-2.104V1.438"/>
	<path clip-path="url(#SVGID_2_)" fill="#0050FF" d="M26.306,46.413c-0.242,0-1.063-0.077-1.402-1.076
		c-0.611-1.805-2.573-2.799-5.527-2.799H3.458C1.551,42.538,0,40.986,0,39.079V1.438C0,0.644,0.644,0,1.438,0h17.939
		c6.629,0,8.388,4.685,8.391,7.161c0,0.093-0.005,0.181-0.016,0.264V44.81C27.752,46.396,26.321,46.413,26.306,46.413 M2.875,2.875
		v36.204c0,0.316,0.267,0.584,0.583,0.584h15.919c2.494,0,4.256,0.575,5.499,1.35L24.877,7.16c0-0.049,0.002-0.097,0.007-0.144
		c-0.037-0.438-0.228-1.704-1.199-2.697c-0.938-0.958-2.388-1.444-4.308-1.444H2.875z"/>
	<path clip-path="url(#SVGID_2_)" fill="#0050FF" d="M26.362,46.413c-0.016,0-1.446-0.018-1.446-1.604V7.427
		C24.906,7.344,24.9,7.258,24.9,7.166c0-0.354,0.063-2.21,1.314-3.997C27.227,1.723,29.276,0,33.291,0h8.767
		c0.37,0,0.728,0.143,0.994,0.399l9.147,8.764c0.282,0.271,0.442,0.646,0.442,1.038v28.878c0,1.907-1.552,3.459-3.459,3.459H33.291
		c-2.954,0-4.917,0.994-5.527,2.799C27.426,46.336,26.605,46.413,26.362,46.413 M27.791,7.16v33.854
		c1.244-0.777,3.007-1.352,5.5-1.352h15.892c0.316,0,0.584-0.268,0.584-0.584V10.814L41.48,2.875h-8.189
		c-1.92,0-3.37,0.486-4.308,1.444c-0.972,0.992-1.162,2.259-1.199,2.696c0.005,0.046,0.007,0.091,0.007,0.138v0.001v0.001v0.002
		v0.001V7.16z"/>
	<path clip-path="url(#SVGID_2_)" fill="#0050FF" d="M42.41,23.809h-6.816c-0.794,0-1.438-0.644-1.438-1.437
		c0-0.794,0.644-1.438,1.438-1.438h6.816c0.794,0,1.437,0.644,1.437,1.438C43.847,23.165,43.204,23.809,42.41,23.809"/>
	<path clip-path="url(#SVGID_2_)" fill="#0050FF" d="M39.005,27.228c-0.795,0-1.438-0.644-1.438-1.437v-6.834
		c0-0.793,0.643-1.437,1.438-1.437c0.794,0,1.437,0.644,1.437,1.437v6.834C40.441,26.584,39.799,27.228,39.005,27.228"/>
	<path clip-path="url(#SVGID_2_)" fill="#0050FF" d="M17.817,13.229H9.951c-0.794,0-1.437-0.644-1.437-1.437
		c0-0.794,0.643-1.438,1.437-1.438h7.866c0.794,0,1.437,0.644,1.437,1.438C19.254,12.584,18.611,13.229,17.817,13.229"/>
	<path clip-path="url(#SVGID_2_)" fill="#0050FF" d="M17.817,22.185H9.951c-0.794,0-1.437-0.644-1.437-1.437
		c0-0.794,0.643-1.438,1.437-1.438h7.866c0.794,0,1.437,0.644,1.437,1.438C19.254,21.541,18.611,22.185,17.817,22.185"/>
	<path clip-path="url(#SVGID_2_)" fill="#0050FF" d="M17.817,31.141H9.951c-0.794,0-1.437-0.644-1.437-1.438
		s0.643-1.438,1.437-1.438h7.866c0.794,0,1.437,0.644,1.437,1.438S18.611,31.141,17.817,31.141"/>
</g>
</svg>
