<?xml version="1.0" encoding="utf-8"?>
<!-- Generator: Adobe Illustrator 16.0.0, SVG Export Plug-In . SVG Version: 6.00 Build 0)  -->
<!DOCTYPE svg PUBLIC "-//W3C//DTD SVG 1.1//EN" "http://www.w3.org/Graphics/SVG/1.1/DTD/svg11.dtd">
<svg version="1.1" id="Layer_1" xmlns="http://www.w3.org/2000/svg" xmlns:xlink="http://www.w3.org/1999/xlink" x="0px" y="0px"
	 width="25.5px" height="25.5px" viewBox="0 0 25.5 25.5" enable-background="new 0 0 25.5 25.5" xml:space="preserve">
<g>
	
		<circle fill="none" stroke="#FFFFFF" stroke-width="1.5" stroke-linecap="round" stroke-linejoin="round" stroke-miterlimit="10" cx="12.75" cy="12.75" r="12"/>
	<path fill="#FFFFFF" d="M17.035,14.58c-1.383,0-2.509,1.125-2.509,2.509c0,0.795,0.379,1.496,0.957,1.956
		c-0.354,0.276-0.804,0.458-1.268,0.458c-1.014,0-1.973-0.84-1.973-1.729v-2.458c2.138-0.226,3.815-2.017,3.815-4.214V8.005
		c0-1.452-1.181-2.633-2.633-2.633c-0.414,0-0.75,0.336-0.75,0.75s0.336,0.75,0.75,0.75c0.625,0,1.133,0.508,1.133,1.133v3.097
		c0,1.521-1.236,2.758-2.757,2.758h-0.617c-1.52,0-2.757-1.237-2.757-2.758V8.005c0-0.625,0.508-1.133,1.133-1.133
		c0.414,0,0.75-0.336,0.75-0.75s-0.336-0.75-0.75-0.75c-1.452,0-2.633,1.181-2.633,2.633v3.097c0,2.197,1.677,3.989,3.815,4.214
		v2.458c0,1.72,1.623,3.229,3.473,3.229c1.135,0,2.183-0.57,2.823-1.406c1.382-0.002,2.505-1.126,2.505-2.508
		C19.544,15.705,18.418,14.58,17.035,14.58 M16.188,17.604c-0.094-0.153-0.162-0.322-0.162-0.515c0-0.557,0.452-1.009,1.009-1.009
		c0.556,0,1.009,0.452,1.009,1.009c0,0.307-0.144,0.571-0.359,0.756c-0.177,0.151-0.398,0.253-0.649,0.253
		C16.671,18.098,16.365,17.894,16.188,17.604"/>
</g>
</svg>
