<?xml version="1.0" encoding="utf-8"?>
<!-- Generator: Adobe Illustrator 16.0.0, SVG Export Plug-In . SVG Version: 6.00 Build 0)  -->
<!DOCTYPE svg PUBLIC "-//W3C//DTD SVG 1.1//EN" "http://www.w3.org/Graphics/SVG/1.1/DTD/svg11.dtd">
<svg version="1.1" id="Layer_1" xmlns="http://www.w3.org/2000/svg" xmlns:xlink="http://www.w3.org/1999/xlink" x="0px" y="0px"
	 width="55px" height="53px" viewBox="0 0 55 53" enable-background="new 0 0 55 53" xml:space="preserve">
<g>
	<defs>
		<rect id="SVGID_1_" x="6" y="6.366" width="43.179" height="46.634"/>
	</defs>
	<clipPath id="SVGID_2_">
		<use xlink:href="#SVGID_1_"  overflow="visible"/>
	</clipPath>
	
		<path clip-path="url(#SVGID_2_)" fill="none" stroke="#0050FF" stroke-width="2.743" stroke-linecap="round" stroke-linejoin="round" stroke-miterlimit="10" d="
		M15.281,36.418V20.226c0-1.906,1.559-3.466,3.466-3.466h25.595c1.906,0,3.466,1.56,3.466,3.466v25.453
		c0,1.906-1.56,3.466-3.466,3.466H20.824"/>
	
		<path clip-path="url(#SVGID_2_)" fill="none" stroke="#0050FF" stroke-width="2.743" stroke-linecap="round" stroke-linejoin="round" stroke-miterlimit="10" d="
		M26.241,40.326V25.578c0-1.15,0.932-2.082,2.081-2.082h19.476v18.911H28.322C27.173,42.407,26.241,41.476,26.241,40.326z"/>
	<path clip-path="url(#SVGID_2_)" fill="#0050FF" d="M41.389,34.008h-7.393c-0.758,0-1.372-0.613-1.372-1.371
		c0-0.759,0.614-1.371,1.372-1.371h7.393c0.757,0,1.372,0.612,1.372,1.371C42.761,33.395,42.146,34.008,41.389,34.008"/>
	<path clip-path="url(#SVGID_2_)" fill="#0050FF" d="M37.71,37.736c-0.757,0-1.372-0.614-1.372-1.372V28.97
		c0-0.757,0.615-1.371,1.372-1.371s1.372,0.614,1.372,1.371v7.395C39.082,37.122,38.467,37.736,37.71,37.736"/>
	
		<path clip-path="url(#SVGID_2_)" fill="none" stroke="#0050FF" stroke-width="2.743" stroke-linecap="round" stroke-linejoin="round" stroke-miterlimit="10" d="
		M38.877,16.682H24.101c-2.46,0-4.472-2.012-4.472-4.472s2.012-4.472,4.472-4.472h14.776c2.46,0,4.472,2.012,4.472,4.472
		S41.337,16.682,38.877,16.682z"/>
	
		<circle clip-path="url(#SVGID_2_)" fill="none" stroke="#0050FF" stroke-width="2.743" stroke-linecap="round" stroke-linejoin="round" stroke-miterlimit="10" cx="14.869" cy="44.132" r="7.497"/>
	
		<line clip-path="url(#SVGID_2_)" fill="none" stroke="#0050FF" stroke-width="2.743" stroke-linecap="round" stroke-linejoin="round" stroke-miterlimit="10" x1="19.327" y1="39.685" x2="9.935" y2="49.077"/>
</g>
</svg>
