<?xml version="1.0" encoding="utf-8"?>
<!-- Generator: Adobe Illustrator 16.0.0, SVG Export Plug-In . SVG Version: 6.00 Build 0)  -->
<!DOCTYPE svg PUBLIC "-//W3C//DTD SVG 1.1//EN" "http://www.w3.org/Graphics/SVG/1.1/DTD/svg11.dtd">
<svg version="1.1" id="Layer_1" xmlns="http://www.w3.org/2000/svg" xmlns:xlink="http://www.w3.org/1999/xlink" x="0px" y="0px"
	 width="46.006px" height="46.006px" viewBox="0 0 46.006 46.006" enable-background="new 0 0 46.006 46.006" xml:space="preserve">
<g>
	<path fill="#0050FF" d="M23.003,2.875c11.098,0,20.128,9.03,20.128,20.128c0,11.098-9.03,20.128-20.128,20.128
		c-11.098,0-20.128-9.03-20.128-20.128C2.875,11.905,11.905,2.875,23.003,2.875 M23.003,0C10.299,0,0,10.299,0,23.003
		s10.299,23.003,23.003,23.003s23.003-10.299,23.003-23.003S35.707,0,23.003,0"/>
	
		<path fill="none" stroke="#0050FF" stroke-width="2.875" stroke-linecap="round" stroke-linejoin="round" stroke-miterlimit="10" d="
		M24.62,30.435h-9.752c-1.64,0-2.983-1.342-2.983-2.983v-8.804c0-1.64,1.343-2.983,2.983-2.983h9.752
		c1.642,0,2.983,1.343,2.983,2.983v8.804C27.604,29.093,26.262,30.435,24.62,30.435z"/>
	
		<path fill="none" stroke="#0050FF" stroke-width="2.875" stroke-linecap="round" stroke-linejoin="round" stroke-miterlimit="10" d="
		M36.229,28.562l-5.632-3.28c-1.131-1.131-1.245-2.866-0.255-3.856l5.887-3.789V28.562z"/>
</g>
</svg>
