<?xml version="1.0" encoding="utf-8"?>
<!-- Generator: Adobe Illustrator 16.0.0, SVG Export Plug-In . SVG Version: 6.00 Build 0)  -->
<!DOCTYPE svg PUBLIC "-//W3C//DTD SVG 1.1//EN" "http://www.w3.org/Graphics/SVG/1.1/DTD/svg11.dtd">
<svg version="1.1" id="Layer_1" xmlns="http://www.w3.org/2000/svg" xmlns:xlink="http://www.w3.org/1999/xlink" x="0px" y="0px"
	 width="45.904px" height="46.532px" viewBox="0 0 45.904 46.532" enable-background="new 0 0 45.904 46.532" xml:space="preserve">
<g>
	<defs>
		<rect id="SVGID_1_" width="45.904" height="46.532"/>
	</defs>
	<clipPath id="SVGID_2_">
		<use xlink:href="#SVGID_1_"  overflow="visible"/>
	</clipPath>
	<path clip-path="url(#SVGID_2_)" fill="#0050FF" d="M16.799,39.055h-6.433c-0.757,0-1.37-0.613-1.37-1.37s0.613-1.37,1.37-1.37
		h6.433c0.757,0,1.37,0.613,1.37,1.37S17.557,39.055,16.799,39.055"/>
	<path clip-path="url(#SVGID_2_)" fill="#0050FF" d="M13.617,42.317c-0.757,0-1.37-0.613-1.37-1.37v-6.433
		c0-0.758,0.613-1.37,1.37-1.37c0.757,0,1.37,0.612,1.37,1.37v6.433C14.987,41.704,14.374,42.317,13.617,42.317"/>
	
		<path clip-path="url(#SVGID_2_)" fill="none" stroke="#0050FF" stroke-width="2.74" stroke-linecap="round" stroke-linejoin="round" stroke-miterlimit="10" d="
		M34.084,41.601c-0.844,2.088-2.89,3.562-5.279,3.562c-3.144,0-5.691-2.548-5.691-5.69l-0.073-9.254"/>
	
		<circle clip-path="url(#SVGID_2_)" fill="none" stroke="#0050FF" stroke-width="2.74" stroke-linecap="round" stroke-linejoin="round" stroke-miterlimit="10" cx="34.495" cy="37.879" r="2.979"/>
	
		<path clip-path="url(#SVGID_2_)" fill="none" stroke="#0050FF" stroke-width="2.74" stroke-linecap="round" stroke-linejoin="round" stroke-miterlimit="10" d="
		M27.004,2.338c-2.285,4.326-7.526,7.46-13.812,8.115c-0.011,0.182-0.017,0.366-0.017,0.552v2.786c0,5.299,4.335,9.635,9.634,9.635
		c5.299,0,9.635-4.336,9.635-9.635v-2.786C32.444,7.207,30.217,3.904,27.004,2.338z"/>
	
		<path clip-path="url(#SVGID_2_)" fill="none" stroke="#0050FF" stroke-width="2.74" stroke-linecap="round" stroke-linejoin="round" stroke-miterlimit="10" d="
		M27.004,2.338c-1.27-0.619-2.693-0.968-4.194-0.968c-5.114,0-9.33,4.038-9.617,9.083C19.478,9.798,24.719,6.664,27.004,2.338z"/>
	
		<path clip-path="url(#SVGID_2_)" fill="none" stroke="#0050FF" stroke-width="2.74" stroke-linecap="round" stroke-linejoin="round" stroke-miterlimit="10" d="
		M27.465,2.887c-0.71,1.08-1.604,2.063-2.646,2.935c1.85,1.823,4.441,3.212,7.441,3.894C31.678,6.864,29.915,4.387,27.465,2.887z"/>
	
		<path clip-path="url(#SVGID_2_)" fill="none" stroke="#0050FF" stroke-width="2.74" stroke-linecap="round" stroke-linejoin="round" stroke-miterlimit="10" d="
		M15.309,22.32C7.198,25.898,1.422,34.921,1.37,44.872"/>
	
		<path clip-path="url(#SVGID_2_)" fill="none" stroke="#0050FF" stroke-width="2.74" stroke-linecap="round" stroke-linejoin="round" stroke-miterlimit="10" d="
		M44.534,44.872c-0.052-9.882-5.748-18.849-13.771-22.477"/>
	
		<line clip-path="url(#SVGID_2_)" fill="none" stroke="#0050FF" stroke-width="2.74" stroke-linecap="round" stroke-linejoin="round" stroke-miterlimit="10" x1="30.614" y1="20.145" x2="30.764" y2="21.882"/>
	
		<path clip-path="url(#SVGID_2_)" fill="none" stroke="#0050FF" stroke-width="2.74" stroke-linecap="round" stroke-linejoin="round" stroke-miterlimit="10" d="
		M15.31,20.145v1.738c0,4.273,3.464,7.737,7.737,7.737c4.271,0,7.735-3.464,7.735-7.737v0.456"/>
</g>
</svg>
